<svg width="203" height="812" viewBox="0 0 203 812" fill="none" xmlns="http://www.w3.org/2000/svg">
<g clip-path="url(#clip0_1_153)">
<g filter="url(#filter0_bii_1_153)">
<mask id="path-1-outside-1_1_153" maskUnits="userSpaceOnUse" x="-626" y="12" width="1446" height="788" fill="black">
<rect fill="white" x="-626" y="12" width="1446" height="788"/>
<path fill-rule="evenodd" clip-rule="evenodd" d="M-320.742 52.0848C-331.321 38.4755 -336.61 31.6708 -343.235 26.7684C-349.104 22.4259 -355.716 19.1908 -362.746 17.2223C-370.682 15 -379.301 15 -396.538 15H-527C-560.603 15 -577.405 15 -590.239 21.5396C-601.529 27.292 -610.708 36.4708 -616.46 47.7606C-623 60.5953 -623 77.3968 -623 111V757.5C-623 779.315 -605.315 797 -583.5 797V797C-561.685 797 -544 779.315 -544 757.5L-544 746.5C-544 718.61 -521.39 696 -493.5 696H-301.5C-273.61 696 -251 718.61 -251 746.5V746.5C-251 774.39 -228.39 797 -200.5 797H-199.189C-182.703 797 -167.201 789.155 -157.439 775.87L-127.515 735.151C-116.97 720.803 -111.698 713.628 -104.97 708.451C-99.0122 703.866 -92.2454 700.441 -85.0222 698.355C-76.8661 696 -67.9631 696 -50.1571 696H721C754.603 696 771.405 696 784.239 689.46C795.529 683.708 804.708 674.529 810.46 663.239C817 650.405 817 633.603 817 600V242C817 208.397 817 191.595 810.46 178.761C804.708 167.471 795.529 158.292 784.239 152.54C771.405 146 754.603 146 721 146H-200.773C-218.01 146 -226.628 146 -234.565 143.778C-241.595 141.809 -248.207 138.574 -254.076 134.232C-260.701 129.329 -265.99 122.525 -276.569 108.915L-320.742 52.0848Z"/>
</mask>
<path fill-rule="evenodd" clip-rule="evenodd" d="M-320.742 52.0848C-331.321 38.4755 -336.61 31.6708 -343.235 26.7684C-349.104 22.4259 -355.716 19.1908 -362.746 17.2223C-370.682 15 -379.301 15 -396.538 15H-527C-560.603 15 -577.405 15 -590.239 21.5396C-601.529 27.292 -610.708 36.4708 -616.46 47.7606C-623 60.5953 -623 77.3968 -623 111V757.5C-623 779.315 -605.315 797 -583.5 797V797C-561.685 797 -544 779.315 -544 757.5L-544 746.5C-544 718.61 -521.39 696 -493.5 696H-301.5C-273.61 696 -251 718.61 -251 746.5V746.5C-251 774.39 -228.39 797 -200.5 797H-199.189C-182.703 797 -167.201 789.155 -157.439 775.87L-127.515 735.151C-116.97 720.803 -111.698 713.628 -104.97 708.451C-99.0122 703.866 -92.2454 700.441 -85.0222 698.355C-76.8661 696 -67.9631 696 -50.1571 696H721C754.603 696 771.405 696 784.239 689.46C795.529 683.708 804.708 674.529 810.46 663.239C817 650.405 817 633.603 817 600V242C817 208.397 817 191.595 810.46 178.761C804.708 167.471 795.529 158.292 784.239 152.54C771.405 146 754.603 146 721 146H-200.773C-218.01 146 -226.628 146 -234.565 143.778C-241.595 141.809 -248.207 138.574 -254.076 134.232C-260.701 129.329 -265.99 122.525 -276.569 108.915L-320.742 52.0848Z" fill="#B880FF" fill-opacity="0.04"/>
<path d="M-234.565 143.778L-233.756 140.889L-234.565 143.778ZM-276.569 108.915L-274.2 107.074L-276.569 108.915ZM-254.076 134.232L-252.291 131.82L-254.076 134.232ZM810.46 178.761L813.133 177.399L810.46 178.761ZM784.239 152.54L785.601 149.867L784.239 152.54ZM784.239 689.46L785.601 692.133L784.239 689.46ZM810.46 663.239L807.787 661.877L810.46 663.239ZM-127.515 735.151L-125.097 736.927L-127.515 735.151ZM-104.97 708.451L-103.141 710.828L-104.97 708.451ZM-85.0222 698.355L-84.1899 701.237L-85.0222 698.355ZM-157.439 775.87L-155.022 777.647L-157.439 775.87ZM-362.746 17.2223L-363.555 20.1112L-362.746 17.2223ZM-320.742 52.0848L-323.111 53.9259L-320.742 52.0848ZM-343.235 26.7684L-345.019 29.18L-343.235 26.7684ZM-527 18H-396.538V12H-527V18ZM-620 757.5V111H-626V757.5H-620ZM-541 757.5L-541 746.5L-547 746.5L-547 757.5L-541 757.5ZM-493.5 699H-301.5V693H-493.5V699ZM-199.189 794H-200.5V800H-199.189V794ZM-129.932 733.374L-159.856 774.094L-155.022 777.647L-125.097 736.927L-129.932 733.374ZM721 693H-50.1571V699H721V693ZM814 242V600H820V242H814ZM-200.773 149H721V143H-200.773V149ZM-323.111 53.9259L-278.937 110.756L-274.2 107.074L-318.374 50.2437L-323.111 53.9259ZM-200.773 143C-218.18 143 -226.309 142.974 -233.756 140.889L-235.374 146.667C-226.947 149.026 -217.84 149 -200.773 149V143ZM-278.937 110.756C-268.463 124.231 -262.894 131.438 -255.86 136.643L-252.291 131.82C-258.508 127.22 -263.517 120.818 -274.2 107.074L-278.937 110.756ZM-233.756 140.889C-240.435 139.019 -246.716 135.945 -252.291 131.82L-255.86 136.643C-249.698 141.203 -242.756 144.6 -235.374 146.667L-233.756 140.889ZM820 242C820 225.248 820.002 212.503 819.173 202.348C818.34 192.157 816.655 184.309 813.133 177.399L807.787 180.123C810.806 186.046 812.39 193.017 813.193 202.836C813.998 212.691 814 225.149 814 242H820ZM721 149C737.851 149 750.309 149.002 760.164 149.807C769.983 150.61 776.954 152.194 782.877 155.213L785.601 149.867C778.691 146.345 770.843 144.66 760.652 143.827C750.497 142.998 737.752 143 721 143V149ZM813.133 177.399C807.093 165.544 797.456 155.907 785.601 149.867L782.877 155.213C793.603 160.677 802.323 169.397 807.787 180.123L813.133 177.399ZM721 699C737.752 699 750.497 699.002 760.652 698.173C770.843 697.34 778.691 695.655 785.601 692.133L782.877 686.787C776.954 689.806 769.983 691.39 760.164 692.193C750.309 692.998 737.851 693 721 693V699ZM814 600C814 616.851 813.998 629.309 813.193 639.164C812.39 648.983 810.806 655.954 807.787 661.877L813.133 664.601C816.655 657.691 818.34 649.843 819.173 639.652C820.002 629.497 820 616.752 820 600H814ZM785.601 692.133C797.456 686.093 807.093 676.456 813.133 664.601L807.787 661.877C802.323 672.603 793.603 681.323 782.877 686.787L785.601 692.133ZM-125.097 736.927C-114.448 722.437 -109.453 715.686 -103.141 710.828L-106.8 706.073C-113.943 711.571 -119.492 719.168 -129.932 733.374L-125.097 736.927ZM-50.1571 693C-67.787 693 -77.1947 692.972 -85.8545 695.473L-84.1899 701.237C-76.5376 699.028 -68.1392 699 -50.1571 699V693ZM-103.141 710.828C-97.4805 706.472 -91.052 703.219 -84.1899 701.237L-85.8545 695.473C-93.4388 697.663 -100.544 701.259 -106.8 706.073L-103.141 710.828ZM-199.189 800C-181.749 800 -165.349 791.7 -155.022 777.647L-159.856 774.094C-169.054 786.609 -183.658 794 -199.189 794V800ZM-254 746.5C-254 776.047 -230.047 800 -200.5 800V794C-226.733 794 -248 772.734 -248 746.5H-254ZM-301.5 699C-275.266 699 -254 720.266 -254 746.5H-248C-248 716.953 -271.953 693 -301.5 693V699ZM-541 746.5C-541 720.266 -519.733 699 -493.5 699V693C-523.047 693 -547 716.953 -547 746.5L-541 746.5ZM-583.5 800C-560.028 800 -541 780.972 -541 757.5L-547 757.5C-547 777.658 -563.342 794 -583.5 794V800ZM-626 757.5C-626 780.972 -606.972 800 -583.5 800V794C-603.658 794 -620 777.658 -620 757.5H-626ZM-396.538 18C-379.131 18 -371.001 18.0261 -363.555 20.1112L-361.937 14.3334C-370.363 11.9739 -379.471 12 -396.538 12V18ZM-318.374 50.2437C-328.848 36.7686 -334.416 29.5619 -341.451 24.3568L-345.019 29.18C-338.803 33.7797 -333.793 40.1824 -323.111 53.9259L-318.374 50.2437ZM-363.555 20.1112C-356.876 21.9813 -350.595 25.0546 -345.019 29.18L-341.451 24.3568C-347.613 19.7972 -354.555 16.4004 -361.937 14.3334L-363.555 20.1112ZM-527 12C-543.752 12 -556.497 11.9977 -566.652 12.8274C-576.843 13.66 -584.691 15.3454 -591.601 18.8666L-588.877 24.2126C-582.954 21.1942 -575.983 19.6098 -566.164 18.8075C-556.309 18.0023 -543.851 18 -527 18V12ZM-620 111C-620 94.1489 -619.998 81.691 -619.193 71.8364C-618.39 62.0168 -616.806 55.0465 -613.787 49.1225L-619.133 46.3986C-622.655 53.3094 -624.34 61.1572 -625.173 71.3478C-626.002 81.5034 -626 94.2479 -626 111H-620ZM-591.601 18.8666C-603.456 24.9066 -613.093 34.5444 -619.133 46.3986L-613.787 49.1225C-608.323 38.3973 -599.603 29.6774 -588.877 24.2126L-591.601 18.8666Z" fill="url(#paint0_linear_1_153)" mask="url(#path-1-outside-1_1_153)"/>
</g>
</g>
<defs>
<filter id="filter0_bii_1_153" x="-686" y="-48" width="1566" height="908" filterUnits="userSpaceOnUse" color-interpolation-filters="sRGB">
<feFlood flood-opacity="0" result="BackgroundImageFix"/>
<feGaussianBlur in="BackgroundImageFix" stdDeviation="30"/>
<feComposite in2="SourceAlpha" operator="in" result="effect1_backgroundBlur_1_153"/>
<feBlend mode="normal" in="SourceGraphic" in2="effect1_backgroundBlur_1_153" result="shape"/>
<feColorMatrix in="SourceAlpha" type="matrix" values="0 0 0 0 0 0 0 0 0 0 0 0 0 0 0 0 0 0 127 0" result="hardAlpha"/>
<feOffset dy="2"/>
<feGaussianBlur stdDeviation="2"/>
<feComposite in2="hardAlpha" operator="arithmetic" k2="-1" k3="1"/>
<feColorMatrix type="matrix" values="0 0 0 0 1 0 0 0 0 1 0 0 0 0 1 0 0 0 0.24 0"/>
<feBlend mode="normal" in2="shape" result="effect2_innerShadow_1_153"/>
<feColorMatrix in="SourceAlpha" type="matrix" values="0 0 0 0 0 0 0 0 0 0 0 0 0 0 0 0 0 0 127 0" result="hardAlpha"/>
<feOffset/>
<feGaussianBlur stdDeviation="34"/>
<feComposite in2="hardAlpha" operator="arithmetic" k2="-1" k3="1"/>
<feColorMatrix type="matrix" values="0 0 0 0 1 0 0 0 0 1 0 0 0 0 1 0 0 0 0.05 0"/>
<feBlend mode="normal" in2="effect2_innerShadow_1_153" result="effect3_innerShadow_1_153"/>
</filter>
<linearGradient id="paint0_linear_1_153" x1="-559.907" y1="-59.0355" x2="812.044" y2="721.891" gradientUnits="userSpaceOnUse">
<stop stop-color="#5D3068"/>
<stop offset="0.451389" stop-color="#C7ADFF" stop-opacity="0.2"/>
<stop offset="1" stop-color="#5D3068"/>
</linearGradient>
<clipPath id="clip0_1_153">
<rect width="203" height="812" fill="white"/>
</clipPath>
</defs>
</svg>
