<svg width="594" height="812" viewBox="0 0 594 812" fill="none" xmlns="http://www.w3.org/2000/svg">
<g clip-path="url(#clip0_1_132)">
<g filter="url(#filter0_bii_1_132)">
<mask id="path-1-outside-1_1_132" maskUnits="userSpaceOnUse" x="8" y="11" width="1446" height="788" fill="black">
<rect fill="white" x="8" y="11" width="1446" height="788"/>
<path fill-rule="evenodd" clip-rule="evenodd" d="M313.258 51.0848C302.679 37.4755 297.39 30.6708 290.765 25.7684C284.896 21.4259 278.284 18.1908 271.254 16.2223C263.318 14 254.699 14 237.462 14H107C73.3969 14 56.5953 14 43.7606 20.5396C32.4708 26.292 23.292 35.4708 17.5396 46.7606C11 59.5953 11 76.3968 11 110V756.5C11 778.315 28.6848 796 50.5 796V796C72.3153 796 90 778.315 90 756.5L90 745.5C90 717.61 112.61 695 140.5 695H332.5C360.39 695 383 717.61 383 745.5V745.5C383 773.39 405.61 796 433.5 796H434.811C451.297 796 466.799 788.155 476.561 774.87L506.485 734.151C517.03 719.803 522.302 712.628 529.03 707.451C534.988 702.866 541.755 699.441 548.978 697.355C557.134 695 566.037 695 583.843 695H1355C1388.6 695 1405.4 695 1418.24 688.46C1429.53 682.708 1438.71 673.529 1444.46 662.239C1451 649.405 1451 632.603 1451 599V241C1451 207.397 1451 190.595 1444.46 177.761C1438.71 166.471 1429.53 157.292 1418.24 151.54C1405.4 145 1388.6 145 1355 145H433.227C415.99 145 407.372 145 399.435 142.778C392.405 140.809 385.793 137.574 379.924 133.232C373.299 128.329 368.01 121.525 357.431 107.915L313.258 51.0848Z"/>
</mask>
<path fill-rule="evenodd" clip-rule="evenodd" d="M313.258 51.0848C302.679 37.4755 297.39 30.6708 290.765 25.7684C284.896 21.4259 278.284 18.1908 271.254 16.2223C263.318 14 254.699 14 237.462 14H107C73.3969 14 56.5953 14 43.7606 20.5396C32.4708 26.292 23.292 35.4708 17.5396 46.7606C11 59.5953 11 76.3968 11 110V756.5C11 778.315 28.6848 796 50.5 796V796C72.3153 796 90 778.315 90 756.5L90 745.5C90 717.61 112.61 695 140.5 695H332.5C360.39 695 383 717.61 383 745.5V745.5C383 773.39 405.61 796 433.5 796H434.811C451.297 796 466.799 788.155 476.561 774.87L506.485 734.151C517.03 719.803 522.302 712.628 529.03 707.451C534.988 702.866 541.755 699.441 548.978 697.355C557.134 695 566.037 695 583.843 695H1355C1388.6 695 1405.4 695 1418.24 688.46C1429.53 682.708 1438.71 673.529 1444.46 662.239C1451 649.405 1451 632.603 1451 599V241C1451 207.397 1451 190.595 1444.46 177.761C1438.71 166.471 1429.53 157.292 1418.24 151.54C1405.4 145 1388.6 145 1355 145H433.227C415.99 145 407.372 145 399.435 142.778C392.405 140.809 385.793 137.574 379.924 133.232C373.299 128.329 368.01 121.525 357.431 107.915L313.258 51.0848Z" fill="#B880FF" fill-opacity="0.04"/>
<path d="M399.435 142.778L400.244 139.889L399.435 142.778ZM357.431 107.915L359.8 106.074L357.431 107.915ZM379.924 133.232L381.709 130.82L379.924 133.232ZM1444.46 177.761L1447.13 176.399L1444.46 177.761ZM1418.24 151.54L1419.6 148.867L1418.24 151.54ZM1418.24 688.46L1419.6 691.133L1418.24 688.46ZM1444.46 662.239L1441.79 660.877L1444.46 662.239ZM506.485 734.151L508.903 735.927L506.485 734.151ZM529.03 707.451L530.859 709.828L529.03 707.451ZM548.978 697.355L549.81 700.237L548.978 697.355ZM476.561 774.87L478.978 776.647L476.561 774.87ZM271.254 16.2223L270.445 19.1112L271.254 16.2223ZM313.258 51.0848L310.889 52.9259L313.258 51.0848ZM290.765 25.7684L288.981 28.18L290.765 25.7684ZM107 17H237.462V11H107V17ZM14 756.5V110H8V756.5H14ZM93 756.5L93 745.5L87 745.5L87 756.5L93 756.5ZM140.5 698H332.5V692H140.5V698ZM434.811 793H433.5V799H434.811V793ZM504.068 732.374L474.144 773.094L478.978 776.647L508.903 735.927L504.068 732.374ZM1355 692H583.843V698H1355V692ZM1448 241V599H1454V241H1448ZM433.227 148H1355V142H433.227V148ZM310.889 52.9259L355.063 109.756L359.8 106.074L315.626 49.2437L310.889 52.9259ZM433.227 142C415.82 142 407.691 141.974 400.244 139.889L398.626 145.667C407.053 148.026 416.16 148 433.227 148V142ZM355.063 109.756C365.537 123.231 371.106 130.438 378.14 135.643L381.709 130.82C375.492 126.22 370.483 119.818 359.8 106.074L355.063 109.756ZM400.244 139.889C393.565 138.019 387.284 134.945 381.709 130.82L378.14 135.643C384.302 140.203 391.244 143.6 398.626 145.667L400.244 139.889ZM1454 241C1454 224.248 1454 211.503 1453.17 201.348C1452.34 191.157 1450.65 183.309 1447.13 176.399L1441.79 179.123C1444.81 185.046 1446.39 192.017 1447.19 201.836C1448 211.691 1448 224.149 1448 241H1454ZM1355 148C1371.85 148 1384.31 148.002 1394.16 148.807C1403.98 149.61 1410.95 151.194 1416.88 154.213L1419.6 148.867C1412.69 145.345 1404.84 143.66 1394.65 142.827C1384.5 141.998 1371.75 142 1355 142V148ZM1447.13 176.399C1441.09 164.544 1431.46 154.907 1419.6 148.867L1416.88 154.213C1427.6 159.677 1436.32 168.397 1441.79 179.123L1447.13 176.399ZM1355 698C1371.75 698 1384.5 698.002 1394.65 697.173C1404.84 696.34 1412.69 694.655 1419.6 691.133L1416.88 685.787C1410.95 688.806 1403.98 690.39 1394.16 691.193C1384.31 691.998 1371.85 692 1355 692V698ZM1448 599C1448 615.851 1448 628.309 1447.19 638.164C1446.39 647.983 1444.81 654.954 1441.79 660.877L1447.13 663.601C1450.65 656.691 1452.34 648.843 1453.17 638.652C1454 628.497 1454 615.752 1454 599H1448ZM1419.6 691.133C1431.46 685.093 1441.09 675.456 1447.13 663.601L1441.79 660.877C1436.32 671.603 1427.6 680.323 1416.88 685.787L1419.6 691.133ZM508.903 735.927C519.552 721.437 524.547 714.686 530.859 709.828L527.2 705.073C520.057 710.571 514.508 718.168 504.068 732.374L508.903 735.927ZM583.843 692C566.213 692 556.805 691.972 548.146 694.473L549.81 700.237C557.462 698.028 565.861 698 583.843 698V692ZM530.859 709.828C536.52 705.472 542.948 702.219 549.81 700.237L548.146 694.473C540.561 696.663 533.456 700.259 527.2 705.073L530.859 709.828ZM434.811 799C452.251 799 468.651 790.7 478.978 776.647L474.144 773.094C464.946 785.609 450.342 793 434.811 793V799ZM380 745.5C380 775.047 403.953 799 433.5 799V793C407.267 793 386 771.734 386 745.5H380ZM332.5 698C358.734 698 380 719.266 380 745.5H386C386 715.953 362.047 692 332.5 692V698ZM93 745.5C93 719.266 114.267 698 140.5 698V692C110.953 692 87 715.953 87 745.5L93 745.5ZM50.5 799C73.9721 799 93 779.972 93 756.5L87 756.5C87 776.658 70.6584 793 50.5 793V799ZM8 756.5C8 779.972 27.0279 799 50.5 799V793C30.3416 793 14 776.658 14 756.5H8ZM237.462 17C254.869 17 262.999 17.0261 270.445 19.1112L272.063 13.3334C263.637 10.9739 254.529 11 237.462 11V17ZM315.626 49.2437C305.152 35.7686 299.584 28.5619 292.549 23.3568L288.981 28.18C295.197 32.7797 300.207 39.1824 310.889 52.9259L315.626 49.2437ZM270.445 19.1112C277.124 20.9813 283.405 24.0546 288.981 28.18L292.549 23.3568C286.387 18.7972 279.445 15.4004 272.063 13.3334L270.445 19.1112ZM107 11C90.2479 11 77.5035 10.9977 67.3478 11.8274C57.1572 12.66 49.3094 14.3454 42.3986 17.8666L45.1225 23.2126C51.0465 20.1942 58.0168 18.6098 67.8364 17.8075C77.691 17.0023 90.1489 17 107 17V11ZM14 110C14 93.1489 14.0023 80.691 14.8075 70.8364C15.6098 61.0168 17.1942 54.0465 20.2126 48.1225L14.8666 45.3986C11.3454 52.3094 9.66002 60.1572 8.82741 70.3478C7.99767 80.5034 8 93.2479 8 110H14ZM42.3986 17.8666C30.5444 23.9066 20.9066 33.5444 14.8666 45.3986L20.2126 48.1225C25.6774 37.3973 34.3973 28.6774 45.1225 23.2126L42.3986 17.8666Z" fill="url(#paint0_linear_1_132)" mask="url(#path-1-outside-1_1_132)"/>
</g>
<path d="M587.215 293.873C588.412 292.508 590.662 293.317 590.717 295.132L590.868 300.149C590.885 300.731 591.156 301.278 591.609 301.644L595.403 304.711C596.878 305.902 596.021 308.286 594.125 308.266L589.247 308.215C588.664 308.209 588.108 308.458 587.723 308.896L584.413 312.668C583.215 314.033 580.965 313.224 580.911 311.409L580.76 306.393C580.743 305.81 580.472 305.264 580.018 304.897L576.224 301.831C574.75 300.639 575.606 298.256 577.502 298.275L582.38 298.326C582.963 298.332 583.52 298.084 583.905 297.646L587.215 293.873Z" fill="white"/>
<path d="M43.2499 490.75L50.6407 496.63C51.7141 497.484 53.1066 497.827 54.4538 497.57L63.4712 495.846C66.0997 495.343 67.8871 498.439 66.1375 500.464L60.1355 507.411C59.2389 508.449 58.8397 509.826 59.0426 511.183L60.44 520.524C60.8192 523.059 57.8962 524.746 55.8904 523.15L48.4996 517.27C47.4263 516.416 46.0338 516.073 44.6866 516.33L35.6692 518.055C33.0407 518.557 31.2533 515.461 33.0028 513.436L39.0048 506.489C39.9015 505.451 40.3006 504.074 40.0977 502.717L38.7004 493.376C38.3212 490.841 41.2442 489.154 43.2499 490.75Z" stroke="white" stroke-width="1.88196"/>
</g>
<defs>
<filter id="filter0_bii_1_132" x="-52" y="-49" width="1566" height="908" filterUnits="userSpaceOnUse" color-interpolation-filters="sRGB">
<feFlood flood-opacity="0" result="BackgroundImageFix"/>
<feGaussianBlur in="BackgroundImageFix" stdDeviation="30"/>
<feComposite in2="SourceAlpha" operator="in" result="effect1_backgroundBlur_1_132"/>
<feBlend mode="normal" in="SourceGraphic" in2="effect1_backgroundBlur_1_132" result="shape"/>
<feColorMatrix in="SourceAlpha" type="matrix" values="0 0 0 0 0 0 0 0 0 0 0 0 0 0 0 0 0 0 127 0" result="hardAlpha"/>
<feOffset dy="2"/>
<feGaussianBlur stdDeviation="2"/>
<feComposite in2="hardAlpha" operator="arithmetic" k2="-1" k3="1"/>
<feColorMatrix type="matrix" values="0 0 0 0 1 0 0 0 0 1 0 0 0 0 1 0 0 0 0.24 0"/>
<feBlend mode="normal" in2="shape" result="effect2_innerShadow_1_132"/>
<feColorMatrix in="SourceAlpha" type="matrix" values="0 0 0 0 0 0 0 0 0 0 0 0 0 0 0 0 0 0 127 0" result="hardAlpha"/>
<feOffset/>
<feGaussianBlur stdDeviation="34"/>
<feComposite in2="hardAlpha" operator="arithmetic" k2="-1" k3="1"/>
<feColorMatrix type="matrix" values="0 0 0 0 1 0 0 0 0 1 0 0 0 0 1 0 0 0 0.05 0"/>
<feBlend mode="normal" in2="effect2_innerShadow_1_132" result="effect3_innerShadow_1_132"/>
</filter>
<linearGradient id="paint0_linear_1_132" x1="74.0928" y1="-60.0355" x2="1446.04" y2="720.891" gradientUnits="userSpaceOnUse">
<stop stop-color="#5D3068"/>
<stop offset="0.451389" stop-color="#C7ADFF" stop-opacity="0.2"/>
<stop offset="1" stop-color="#5D3068"/>
</linearGradient>
<clipPath id="clip0_1_132">
<rect width="594" height="812" fill="white"/>
</clipPath>
</defs>
</svg>
