<svg width="1446" height="788" viewBox="0 0 1446 788" fill="none" xmlns="http://www.w3.org/2000/svg">
<g filter="url(#filter0_bii_3_234)">
<mask id="path-1-outside-1_3_234" maskUnits="userSpaceOnUse" x="0" y="0" width="1446" height="788" fill="black">
<rect fill="white" width="1446" height="788"/>
<path fill-rule="evenodd" clip-rule="evenodd" d="M305.258 40.0848C294.679 26.4755 289.39 19.6708 282.765 14.7684C276.896 10.4259 270.284 7.19083 263.254 5.2223C255.318 3 246.699 3 229.462 3H99C65.3969 3 48.5953 3 35.7606 9.53961C24.4708 15.292 15.292 24.4708 9.53961 35.7606C3 48.5953 3 65.3968 3 99V745.5C3 767.315 20.6848 785 42.5 785V785C64.3153 785 82 767.315 82 745.5L82 734.5C82 706.61 104.61 684 132.5 684H324.5C352.39 684 375 706.61 375 734.5V734.5C375 762.39 397.61 785 425.5 785H426.811C443.297 785 458.799 777.155 468.561 763.87L498.485 723.151C509.03 708.803 514.302 701.628 521.03 696.451C526.988 691.866 533.755 688.441 540.978 686.355C549.134 684 558.037 684 575.843 684H1347C1380.6 684 1397.4 684 1410.24 677.46C1421.53 671.708 1430.71 662.529 1436.46 651.239C1443 638.405 1443 621.603 1443 588V230C1443 196.397 1443 179.595 1436.46 166.761C1430.71 155.471 1421.53 146.292 1410.24 140.54C1397.4 134 1380.6 134 1347 134H425.227C407.99 134 399.372 134 391.435 131.778C384.405 129.809 377.793 126.574 371.924 122.232C365.299 117.329 360.01 110.525 349.431 96.9152L305.258 40.0848Z"/>
</mask>
<path fill-rule="evenodd" clip-rule="evenodd" d="M305.258 40.0848C294.679 26.4755 289.39 19.6708 282.765 14.7684C276.896 10.4259 270.284 7.19083 263.254 5.2223C255.318 3 246.699 3 229.462 3H99C65.3969 3 48.5953 3 35.7606 9.53961C24.4708 15.292 15.292 24.4708 9.53961 35.7606C3 48.5953 3 65.3968 3 99V745.5C3 767.315 20.6848 785 42.5 785V785C64.3153 785 82 767.315 82 745.5L82 734.5C82 706.61 104.61 684 132.5 684H324.5C352.39 684 375 706.61 375 734.5V734.5C375 762.39 397.61 785 425.5 785H426.811C443.297 785 458.799 777.155 468.561 763.87L498.485 723.151C509.03 708.803 514.302 701.628 521.03 696.451C526.988 691.866 533.755 688.441 540.978 686.355C549.134 684 558.037 684 575.843 684H1347C1380.6 684 1397.4 684 1410.24 677.46C1421.53 671.708 1430.71 662.529 1436.46 651.239C1443 638.405 1443 621.603 1443 588V230C1443 196.397 1443 179.595 1436.46 166.761C1430.71 155.471 1421.53 146.292 1410.24 140.54C1397.4 134 1380.6 134 1347 134H425.227C407.99 134 399.372 134 391.435 131.778C384.405 129.809 377.793 126.574 371.924 122.232C365.299 117.329 360.01 110.525 349.431 96.9152L305.258 40.0848Z" fill="#B880FF" fill-opacity="0.04"/>
<path d="M391.435 131.778L392.244 128.889L391.435 131.778ZM349.431 96.9152L351.8 95.0741L349.431 96.9152ZM371.924 122.232L373.709 119.82L371.924 122.232ZM1436.46 166.761L1439.13 165.399L1436.46 166.761ZM1410.24 140.54L1411.6 137.867L1410.24 140.54ZM1410.24 677.46L1411.6 680.133L1410.24 677.46ZM1436.46 651.239L1433.79 649.877L1436.46 651.239ZM498.485 723.151L500.903 724.927L498.485 723.151ZM521.03 696.451L522.859 698.828L521.03 696.451ZM540.978 686.355L541.81 689.237L540.978 686.355ZM468.561 763.87L470.978 765.647L468.561 763.87ZM263.254 5.2223L262.445 8.11119L263.254 5.2223ZM305.258 40.0848L302.889 41.9259L305.258 40.0848ZM282.765 14.7684L280.981 17.18L282.765 14.7684ZM99 6H229.462V0H99V6ZM6 745.5V99H0V745.5H6ZM85 745.5L85 734.5L79 734.5L79 745.5L85 745.5ZM132.5 687H324.5V681H132.5V687ZM426.811 782H425.5V788H426.811V782ZM496.068 721.374L466.144 762.094L470.978 765.647L500.903 724.927L496.068 721.374ZM1347 681H575.843V687H1347V681ZM1440 230V588H1446V230H1440ZM425.227 137H1347V131H425.227V137ZM302.889 41.9259L347.063 98.7563L351.8 95.0741L307.626 38.2437L302.889 41.9259ZM425.227 131C407.82 131 399.691 130.974 392.244 128.889L390.626 134.667C399.053 137.026 408.16 137 425.227 137V131ZM347.063 98.7563C357.537 112.231 363.106 119.438 370.14 124.643L373.709 119.82C367.492 115.22 362.483 108.818 351.8 95.0741L347.063 98.7563ZM392.244 128.889C385.565 127.019 379.284 123.945 373.709 119.82L370.14 124.643C376.302 129.203 383.244 132.6 390.626 134.667L392.244 128.889ZM1446 230C1446 213.248 1446 200.503 1445.17 190.348C1444.34 180.157 1442.65 172.309 1439.13 165.399L1433.79 168.123C1436.81 174.046 1438.39 181.017 1439.19 190.836C1440 200.691 1440 213.149 1440 230H1446ZM1347 137C1363.85 137 1376.31 137.002 1386.16 137.807C1395.98 138.61 1402.95 140.194 1408.88 143.213L1411.6 137.867C1404.69 134.345 1396.84 132.66 1386.65 131.827C1376.5 130.998 1363.75 131 1347 131V137ZM1439.13 165.399C1433.09 153.544 1423.46 143.907 1411.6 137.867L1408.88 143.213C1419.6 148.677 1428.32 157.397 1433.79 168.123L1439.13 165.399ZM1347 687C1363.75 687 1376.5 687.002 1386.65 686.173C1396.84 685.34 1404.69 683.655 1411.6 680.133L1408.88 674.787C1402.95 677.806 1395.98 679.39 1386.16 680.193C1376.31 680.998 1363.85 681 1347 681V687ZM1440 588C1440 604.851 1440 617.309 1439.19 627.164C1438.39 636.983 1436.81 643.954 1433.79 649.877L1439.13 652.601C1442.65 645.691 1444.34 637.843 1445.17 627.652C1446 617.497 1446 604.752 1446 588H1440ZM1411.6 680.133C1423.46 674.093 1433.09 664.456 1439.13 652.601L1433.79 649.877C1428.32 660.603 1419.6 669.323 1408.88 674.787L1411.6 680.133ZM500.903 724.927C511.552 710.437 516.547 703.686 522.859 698.828L519.2 694.073C512.057 699.571 506.508 707.168 496.068 721.374L500.903 724.927ZM575.843 681C558.213 681 548.805 680.972 540.146 683.473L541.81 689.237C549.462 687.028 557.861 687 575.843 687V681ZM522.859 698.828C528.52 694.472 534.948 691.219 541.81 689.237L540.146 683.473C532.561 685.663 525.456 689.259 519.2 694.073L522.859 698.828ZM426.811 788C444.251 788 460.651 779.7 470.978 765.647L466.144 762.094C456.946 774.609 442.342 782 426.811 782V788ZM372 734.5C372 764.047 395.953 788 425.5 788V782C399.267 782 378 760.734 378 734.5H372ZM324.5 687C350.734 687 372 708.266 372 734.5H378C378 704.953 354.047 681 324.5 681V687ZM85 734.5C85 708.266 106.267 687 132.5 687V681C102.953 681 79 704.953 79 734.5L85 734.5ZM42.5 788C65.9721 788 85 768.972 85 745.5L79 745.5C79 765.658 62.6584 782 42.5 782V788ZM0 745.5C0 768.972 19.0279 788 42.5 788V782C22.3416 782 6 765.658 6 745.5H0ZM229.462 6C246.869 6 254.999 6.02608 262.445 8.11119L264.063 2.33342C255.637 -0.026078 246.529 0 229.462 0V6ZM307.626 38.2437C297.152 24.7686 291.584 17.5619 284.549 12.3568L280.981 17.18C287.197 21.7797 292.207 28.1824 302.889 41.9259L307.626 38.2437ZM262.445 8.11119C269.124 9.98129 275.405 13.0546 280.981 17.18L284.549 12.3568C278.387 7.79716 271.445 4.40037 264.063 2.33342L262.445 8.11119ZM99 0C82.2479 0 69.5035 -0.00233312 59.3478 0.827414C49.1572 1.66002 41.3094 3.34538 34.3986 6.86659L37.1225 12.2126C43.0465 9.19423 50.0168 7.60978 59.8364 6.80749C69.691 6.00233 82.1489 6 99 6V0ZM6 99C6 82.1489 6.00233 69.691 6.80749 59.8364C7.60978 50.0168 9.19423 43.0465 12.2126 37.1225L6.86659 34.3986C3.34538 41.3094 1.66002 49.1572 0.827414 59.3478C-0.00233312 69.5034 0 82.2479 0 99H6ZM34.3986 6.86659C22.5444 12.9066 12.9066 22.5444 6.86659 34.3986L12.2126 37.1225C17.6774 26.3973 26.3973 17.6774 37.1225 12.2126L34.3986 6.86659Z" fill="url(#paint0_linear_3_234)" mask="url(#path-1-outside-1_3_234)"/>
</g>
<defs>
<filter id="filter0_bii_3_234" x="-60" y="-60" width="1566" height="908" filterUnits="userSpaceOnUse" color-interpolation-filters="sRGB">
<feFlood flood-opacity="0" result="BackgroundImageFix"/>
<feGaussianBlur in="BackgroundImageFix" stdDeviation="30"/>
<feComposite in2="SourceAlpha" operator="in" result="effect1_backgroundBlur_3_234"/>
<feBlend mode="normal" in="SourceGraphic" in2="effect1_backgroundBlur_3_234" result="shape"/>
<feColorMatrix in="SourceAlpha" type="matrix" values="0 0 0 0 0 0 0 0 0 0 0 0 0 0 0 0 0 0 127 0" result="hardAlpha"/>
<feOffset dy="2"/>
<feGaussianBlur stdDeviation="2"/>
<feComposite in2="hardAlpha" operator="arithmetic" k2="-1" k3="1"/>
<feColorMatrix type="matrix" values="0 0 0 0 1 0 0 0 0 1 0 0 0 0 1 0 0 0 0.24 0"/>
<feBlend mode="normal" in2="shape" result="effect2_innerShadow_3_234"/>
<feColorMatrix in="SourceAlpha" type="matrix" values="0 0 0 0 0 0 0 0 0 0 0 0 0 0 0 0 0 0 127 0" result="hardAlpha"/>
<feOffset/>
<feGaussianBlur stdDeviation="34"/>
<feComposite in2="hardAlpha" operator="arithmetic" k2="-1" k3="1"/>
<feColorMatrix type="matrix" values="0 0 0 0 1 0 0 0 0 1 0 0 0 0 1 0 0 0 0.05 0"/>
<feBlend mode="normal" in2="effect2_innerShadow_3_234" result="effect3_innerShadow_3_234"/>
</filter>
<linearGradient id="paint0_linear_3_234" x1="66.0928" y1="-71.0355" x2="1438.04" y2="709.891" gradientUnits="userSpaceOnUse">
<stop stop-color="#5D3068"/>
<stop offset="0.451389" stop-color="#C7ADFF" stop-opacity="0.2"/>
<stop offset="1" stop-color="#5D3068"/>
</linearGradient>
</defs>
</svg>
