<svg width="72" height="72" viewBox="0 0 72 72" fill="none" xmlns="http://www.w3.org/2000/svg">
<g clip-path="url(#clip0_77_122)">
<path d="M16.8459 72H55.2316C60.1276 71.9956 64.6189 69.282 66.9002 64.9495C69.1809 60.6176 68.8766 55.3788 66.1097 51.3397L59.8145 41.8991C62.0404 41.4344 63.6356 39.4739 63.6389 37.2003V34.7997C63.6389 32.1493 61.4899 29.9998 58.8389 29.9998H32.4388C32.4388 25.3608 28.6782 21.6002 24.0387 21.6002C19.3997 21.6002 15.6391 25.3608 15.6391 29.9998H13.2391C10.8122 30.0075 8.7748 31.8279 8.4952 34.2383C8.48092 34.2927 8.46993 34.3482 8.46279 34.4042V34.4279C8.46279 34.4449 8.47103 34.4581 8.47103 34.4745C8.46389 34.5839 8.43862 34.6882 8.43862 34.7997V37.2003C8.44192 39.4739 10.0377 41.4344 12.2635 41.8991L5.97164 51.3325C3.20089 55.3711 2.89382 60.6121 5.17458 64.9462C7.45534 69.2809 11.9482 71.9962 16.8459 72ZM24.0387 24.0002C27.351 24.004 30.035 26.688 30.0388 29.9998H22.839C22.839 29.3373 23.3762 28.8001 24.0387 28.8001C24.7017 28.8001 25.2389 28.2629 25.2389 27.5999C25.2389 26.9374 24.7017 26.4001 24.0387 26.4001C22.0507 26.4001 20.439 28.0118 20.439 29.9998H18.039C18.0429 26.688 20.7268 24.004 24.0387 24.0002ZM10.8391 37.2003V34.7997C10.8391 33.4742 11.9136 32.3998 13.2391 32.3998H58.8389C60.1644 32.3998 61.2389 33.4742 61.2389 34.7997V37.2003C61.2389 38.5258 60.1644 39.6002 58.8389 39.6002V37.2003C58.8389 35.8748 57.7645 34.7997 56.439 34.7997H15.6391C14.3136 34.7997 13.2391 35.8748 13.2391 37.2003V39.6002C11.9136 39.6002 10.8391 38.5258 10.8391 37.2003ZM7.95907 52.68L15.4347 41.4695C15.4578 41.4272 15.4781 41.3833 15.4962 41.3388C15.5171 41.2998 15.5363 41.2597 15.5523 41.2191C15.6067 41.0856 15.6358 40.9438 15.6391 40.7999V37.2003H56.439V40.7999C56.4412 40.9427 56.4697 41.0839 56.523 41.2163C56.539 41.2575 56.5582 41.2976 56.5791 41.3366C56.5972 41.3811 56.6175 41.4245 56.6406 41.4673L64.119 52.68L64.1272 52.6932C66.3926 55.9973 66.6425 60.2836 64.7776 63.8289C62.9121 67.3742 59.2378 69.5956 55.2316 69.6H16.8459C12.837 69.5956 9.16042 67.3715 7.29604 63.8223C5.43221 60.2726 5.68709 55.983 7.95907 52.68Z" fill="white"/>
<path d="M25.2389 16.7997C29.8779 16.7997 33.639 13.0391 33.639 8.40015C33.639 3.76062 29.8779 0 25.2389 0C20.5999 0 16.8387 3.76062 16.8387 8.40015C16.8442 13.0369 20.6021 16.7948 25.2389 16.7997ZM25.2389 2.39996C28.5524 2.39996 31.2391 5.08612 31.2391 8.40015C31.2391 11.7136 28.5524 14.3998 25.2389 14.3998C21.9254 14.3998 19.2387 11.7136 19.2387 8.40015C19.2431 5.08777 21.9271 2.40381 25.2389 2.39996Z" fill="white"/>
<path d="M46.8396 26.3999C51.4786 26.3999 55.2392 22.6387 55.2392 17.9998C55.2392 13.3608 51.4786 9.59961 46.8396 9.59961C42.2001 9.59961 38.4395 13.3608 38.4395 17.9998C38.4444 22.6365 42.2023 26.3944 46.8396 26.3999ZM46.8396 11.9996C50.1531 11.9996 52.8392 14.6863 52.8392 17.9998C52.8392 21.3132 50.1531 23.9999 46.8396 23.9999C43.5256 23.9999 40.8394 21.3132 40.8394 17.9998C40.8433 14.6879 43.5272 12.004 46.8396 11.9996Z" fill="white"/>
<path d="M16.8455 67.1999H19.2383C19.9013 67.1999 20.4385 66.6626 20.4385 65.9996C20.4385 65.3371 19.9013 64.7999 19.2383 64.7999H16.8455C14.6432 64.795 12.6207 63.5837 11.5764 61.6452C10.5322 59.7061 10.6338 57.3512 11.8417 55.5093C12.0774 55.1512 12.1043 54.6941 11.9115 54.3107C11.7192 53.9273 11.3369 53.6757 10.9084 53.6504C10.48 53.6257 10.0713 53.8312 9.83508 54.1893C8.14209 56.7684 7.99871 60.0681 9.46209 62.7845C10.9255 65.5003 13.7605 67.1955 16.8455 67.1999Z" fill="white"/>
<path d="M24.0386 67.2H25.2389C25.9014 67.2 26.4386 66.6628 26.4386 65.9998C26.4386 65.3373 25.9014 64.8 25.2389 64.8H24.0386C23.3762 64.8 22.8389 65.3373 22.8389 65.9998C22.8389 66.6628 23.3762 67.2 24.0386 67.2Z" fill="white"/>
<path d="M13.8057 51.6C14.2073 51.6006 14.5825 51.4001 14.8049 51.0661L15.6058 49.8659C15.8437 49.5093 15.8733 49.0529 15.6833 48.6683C15.4932 48.2838 15.1125 48.03 14.6846 48.0026C14.2567 47.9746 13.8469 48.1773 13.6085 48.5338L12.8082 49.734C12.5626 50.1021 12.5395 50.5756 12.7483 50.9656C12.957 51.3556 13.363 51.5995 13.8057 51.6Z" fill="white"/>
<path d="M23.4391 11.5201C24.0104 11.8272 24.7223 11.6251 25.0469 11.0637C25.3716 10.5017 25.1908 9.78375 24.6393 9.44263C24.1647 9.17291 23.9329 8.61701 24.0735 8.08966C24.2147 7.56287 24.6937 7.19702 25.2392 7.19977C25.9017 7.19977 26.4389 6.66254 26.4389 6.00006C26.4389 5.33704 25.9017 4.79981 25.2392 4.79981C23.6083 4.79816 22.1795 5.89295 21.7576 7.46839C21.3357 9.04382 22.0257 10.7061 23.4391 11.5201Z" fill="white"/>
<path d="M45.0387 21.1202C45.61 21.4273 46.3219 21.2252 46.6465 20.6638C46.9706 20.1018 46.7899 19.3844 46.2384 19.0427C45.7643 18.773 45.532 18.2171 45.6731 17.6898C45.8143 17.163 46.2928 16.7971 46.8388 16.7999C47.5013 16.7999 48.0385 16.2626 48.0385 15.6002C48.0385 14.9371 47.5013 14.3999 46.8388 14.3999C45.2073 14.3983 43.7791 15.493 43.3572 17.0685C42.9354 18.6439 43.6253 20.3067 45.0387 21.1202Z" fill="white"/>
</g>
<defs>
<clipPath id="clip0_77_122">
<rect width="72" height="72" fill="white"/>
</clipPath>
</defs>
</svg>
