<svg width="119" height="119" viewBox="0 0 119 119" fill="none" xmlns="http://www.w3.org/2000/svg">
<path d="M100.406 56.8969V27.8906C100.401 26.741 100.042 25.621 99.376 24.6838C98.7103 23.7465 97.7713 23.0378 96.6875 22.6546V16.7344C96.6875 15.255 96.0998 13.8361 95.0537 12.79C94.0076 11.7439 92.5888 11.1562 91.1094 11.1562H39.0469C38.5537 11.1562 38.0808 10.9604 37.7321 10.6117C37.3834 10.263 37.1875 9.79001 37.1875 9.29688C37.1875 7.81746 36.5998 6.39865 35.5537 5.35255C34.5076 4.30644 33.0888 3.71875 31.6094 3.71875H9.29688C7.81746 3.71875 6.39865 4.30644 5.35255 5.35255C4.30644 6.39865 3.71875 7.81746 3.71875 9.29688V79.9531C3.71875 81.4325 4.30644 82.8514 5.35255 83.8975C6.39865 84.9436 7.81746 85.5312 9.29688 85.5312H52.1573C52.4712 90.9442 54.1732 96.1853 57.0993 100.75C60.0254 105.315 64.0773 109.049 68.8649 111.595C73.6524 114.14 79.0145 115.41 84.4351 115.283C89.8557 115.155 95.1523 113.635 99.815 110.868C104.478 108.1 108.35 104.18 111.058 99.4825C113.767 94.7854 115.221 89.4702 115.28 84.0484C115.34 78.6267 114.003 73.2809 111.397 68.5256C108.792 63.7703 105.007 59.7656 100.406 56.8969ZM7.4375 79.9531V9.29688C7.4375 8.80374 7.6334 8.3308 7.9821 7.9821C8.3308 7.6334 8.80374 7.4375 9.29688 7.4375H31.6094C32.1025 7.4375 32.5755 7.6334 32.9242 7.9821C33.2729 8.3308 33.4688 8.80374 33.4688 9.29688C33.4688 10.7763 34.0564 12.1951 35.1025 13.2412C36.1486 14.2873 37.5675 14.875 39.0469 14.875H91.1094C91.6025 14.875 92.0755 15.0709 92.4242 15.4196C92.7729 15.7683 92.9688 16.2412 92.9688 16.7344V22.3125H24.1719C21.7071 22.3155 19.3441 23.2959 17.6013 25.0388C15.8584 26.7816 14.878 29.1446 14.875 31.6094V76.2344C14.8818 78.2527 15.5522 80.2127 16.7827 81.8125H9.29688C8.80374 81.8125 8.3308 81.6166 7.9821 81.2679C7.6334 80.9192 7.4375 80.4463 7.4375 79.9531ZM18.5938 76.2344V31.6094C18.5938 30.13 19.1814 28.7111 20.2275 27.665C21.2736 26.6189 22.6925 26.0313 24.1719 26.0312H94.8281C95.3213 26.0312 95.7942 26.2271 96.1429 26.5758C96.4916 26.9245 96.6875 27.3975 96.6875 27.8906V54.8999C92.023 52.7739 86.9102 51.818 81.7927 52.1151C76.6752 52.4122 71.7074 53.9533 67.3202 56.6048C62.9331 59.2562 59.259 62.938 56.6167 67.3307C53.9744 71.7234 52.4437 76.6944 52.1573 81.8125H24.1719C22.6925 81.8125 21.2736 81.2248 20.2275 80.1787C19.1814 79.1326 18.5938 77.7138 18.5938 76.2344ZM83.6719 111.562C78.1556 111.562 72.7633 109.927 68.1767 106.862C63.5901 103.797 60.0153 99.4415 57.9043 94.3452C55.7933 89.2488 55.241 83.6409 56.3172 78.2307C57.3933 72.8204 60.0497 67.8508 63.9502 63.9502C67.8508 60.0497 72.8204 57.3933 78.2307 56.3172C83.6409 55.241 89.2488 55.7933 94.3452 57.9043C99.4415 60.0153 103.797 63.5901 106.862 68.1767C109.927 72.7633 111.562 78.1556 111.562 83.6719C111.554 91.0664 108.613 98.1556 103.384 103.384C98.1556 108.613 91.0664 111.554 83.6719 111.562Z" fill="white"/>
<path d="M89.2499 63.2188H78.0937C77.8236 63.2188 77.5568 63.2778 77.3118 63.3914C77.0667 63.5051 76.8494 63.6707 76.675 63.8769C76.5005 64.0831 76.373 64.3248 76.3014 64.5852C76.2298 64.8456 76.2158 65.1185 76.2603 65.3849L79.9791 87.6974C80.0517 88.1312 80.2757 88.5253 80.6114 88.8096C80.947 89.0938 81.3726 89.2499 81.8124 89.25H85.5312C85.971 89.2499 86.3966 89.0938 86.7323 88.8096C87.0679 88.5253 87.292 88.1312 87.3645 87.6974L91.0833 65.3849C91.1279 65.1185 91.1138 64.8456 91.0422 64.5852C90.9706 64.3248 90.8432 64.0831 90.6687 63.8769C90.4942 63.6707 90.2769 63.5051 90.0319 63.3914C89.7869 63.2778 89.52 63.2188 89.2499 63.2188ZM83.9563 85.5312H83.3873L80.2896 66.9375H87.054L83.9563 85.5312Z" fill="white"/>
<path d="M83.6719 92.9688C82.5686 92.9688 81.4902 93.2959 80.5728 93.9088C79.6555 94.5218 78.9406 95.393 78.5184 96.4122C78.0962 97.4315 77.9857 98.5531 78.2009 99.6351C78.4162 100.717 78.9474 101.711 79.7275 102.491C80.5077 103.271 81.5016 103.803 82.5836 104.018C83.6657 104.233 84.7873 104.123 85.8065 103.7C86.8258 103.278 87.697 102.563 88.3099 101.646C88.9228 100.729 89.25 99.6501 89.25 98.5469C89.25 97.0675 88.6623 95.6486 87.6162 94.6025C86.5701 93.5564 85.1513 92.9688 83.6719 92.9688ZM83.6719 100.406C83.3041 100.406 82.9446 100.297 82.6389 100.093C82.3331 99.8886 82.0948 99.5982 81.954 99.2584C81.8133 98.9187 81.7765 98.5448 81.8482 98.1841C81.92 97.8234 82.0971 97.4921 82.3571 97.2321C82.6171 96.9721 82.9484 96.795 83.3091 96.7232C83.6698 96.6515 84.0437 96.6883 84.3834 96.829C84.7232 96.9698 85.0136 97.2081 85.2179 97.5139C85.4222 97.8196 85.5313 98.1791 85.5313 98.5469C85.5313 99.04 85.3354 99.513 84.9867 99.8617C84.638 100.21 84.165 100.406 83.6719 100.406Z" fill="white"/>
<path d="M24.1719 29.75C23.6787 29.75 23.2058 29.9459 22.8571 30.2946C22.5084 30.6433 22.3125 31.1162 22.3125 31.6094V39.0469H26.0312V33.4688H31.6094V29.75H24.1719Z" fill="white"/>
<path d="M26.0312 42.7656H22.3125V46.4844H26.0312V42.7656Z" fill="white"/>
</svg>
