<svg width="24" height="23" viewBox="0 0 24 23" fill="none" xmlns="http://www.w3.org/2000/svg">
<path d="M8.54765 4.00736C9.6339 0.664215 14.3636 0.664215 15.4498 4.00736C15.9356 5.50245 17.3288 6.51471 18.9009 6.51471C22.4161 6.51471 23.8776 11.0129 21.0338 13.079C19.762 14.0031 19.2298 15.6409 19.7156 17.136C20.8018 20.4792 16.9755 23.2592 14.1316 21.193C12.8598 20.269 11.1376 20.269 9.86584 21.193C7.022 23.2592 3.19563 20.4792 4.28188 17.136C4.76767 15.6409 4.23549 14.0031 2.96369 13.079C0.119843 11.0129 1.58139 6.51471 5.09657 6.51471C6.66861 6.51471 8.06186 5.50245 8.54765 4.00736Z" stroke="white" stroke-width="1.5"/>
</svg>
