<svg width="66" height="65" viewBox="0 0 66 65" fill="none" xmlns="http://www.w3.org/2000/svg">
<rect x="1.5" y="1.5" width="62.5307" height="62" rx="31" fill="#AF51BD"/>
<rect x="1.5" y="1.5" width="62.5307" height="62" rx="31" stroke="#846E97" stroke-width="3"/>
<path d="M27.0156 44.5L31.3458 37H22.6855L27.0156 44.5ZM26.2656 20.5V21.5H27.7656V20.5H26.2656ZM26.2656 23.5V25.5H27.7656V23.5H26.2656ZM26.2656 27.5V29.5H27.7656V27.5H26.2656ZM26.2656 31.5V33.5H27.7656V31.5H26.2656ZM26.2656 35.5V37.5H27.7656V35.5H26.2656ZM26.2656 39.5V41.5H27.7656V39.5H26.2656Z" fill="white"/>
<path d="M38.5156 20.5L34.1855 28L42.8458 28L38.5156 20.5ZM39.2656 44.5L39.2656 43.5L37.7656 43.5L37.7656 44.5L39.2656 44.5ZM39.2656 41.5L39.2656 39.5L37.7656 39.5L37.7656 41.5L39.2656 41.5ZM39.2656 37.5L39.2656 35.5L37.7656 35.5L37.7656 37.5L39.2656 37.5ZM39.2656 33.5L39.2656 31.5L37.7656 31.5L37.7656 33.5L39.2656 33.5ZM39.2656 29.5L39.2656 27.5L37.7656 27.5L37.7656 29.5L39.2656 29.5ZM39.2656 25.5L39.2656 23.5L37.7656 23.5L37.7656 25.5L39.2656 25.5Z" fill="white"/>
</svg>
